<svg width="187" height="55" viewBox="0 0 187 55" fill="none" xmlns="http://www.w3.org/2000/svg">
<path fill-rule="evenodd" clip-rule="evenodd" d="M3.06013 41.873H9.81509C11.5152 41.873 12.8979 40.6463 12.8752 39.1582V29.365H20.5595C29.6493 29.365 37.0163 22.8296 37.0163 14.7658C37.0163 6.70199 29.6493 0.166504 20.5369 0.166504H12.8752H8.65901H3.06013C1.38273 0.166504 0 1.39316 0 2.88124V39.1582C0 40.6463 1.36006 41.873 3.06013 41.873Z" fill="url(#paint0_linear_3_2311)" fill-opacity="0.8"/>
<path fill-rule="evenodd" clip-rule="evenodd" d="M10.1636 49.8085H16.9186C18.6187 49.8085 20.0014 48.5819 19.9787 47.0938V37.3007H27.6631C36.7528 37.3007 44.1198 30.7652 44.1198 22.7014C44.1198 14.6376 36.7528 8.10211 27.6404 8.10211H19.9787V8.10205H10.1636C8.48624 8.10205 7.10352 9.32871 7.10352 10.8168V47.0938C7.10352 48.5819 8.46358 49.8085 10.1636 49.8085Z" fill="url(#paint1_linear_3_2311)" fill-opacity="0.74"/>
<path d="M7.10205 53.3037L8.78565 53.2979C10.9894 53.2903 12.7718 51.5017 12.7718 49.2979V38.8116H19.9719C25.6658 38.7221 37.0185 35.2157 36.8777 21.9058C36.7369 8.59597 25.5485 5.0895 19.9719 5" stroke="white" stroke-width="2"/>
<path d="M54.9616 23.6001V44.6001H59.2516V23.6001H54.9616ZM57.5716 27.2301H61.7416C62.8816 27.2301 63.7816 27.4901 64.4416 28.0101C65.1016 28.5101 65.4316 29.2701 65.4316 30.2901C65.4316 31.2901 65.1016 32.0501 64.4416 32.5701C63.7816 33.0901 62.8816 33.3501 61.7416 33.3501H57.5716V36.9801H61.7416C63.4016 36.9801 64.8116 36.7101 65.9716 36.1701C67.1516 35.6301 68.0516 34.8601 68.6716 33.8601C69.2916 32.8401 69.6016 31.6501 69.6016 30.2901C69.6016 28.9101 69.2916 27.7201 68.6716 26.7201C68.0516 25.7201 67.1516 24.9501 65.9716 24.4101C64.8116 23.8701 63.4016 23.6001 61.7416 23.6001H57.5716V27.2301ZM75.7847 30.8001H71.9747V44.6001H75.7847V30.8001ZM79.8347 34.8501L81.6047 31.5501C81.3247 31.1901 80.9547 30.9201 80.4947 30.7401C80.0547 30.5601 79.5847 30.4701 79.0847 30.4701C78.3647 30.4701 77.6647 30.7301 76.9847 31.2501C76.3047 31.7501 75.7547 32.4301 75.3347 33.2901C74.9147 34.1301 74.7047 35.1001 74.7047 36.2001L75.7847 37.2801C75.7847 36.6201 75.8647 36.0601 76.0247 35.6001C76.2047 35.1201 76.4647 34.7501 76.8047 34.4901C77.1447 34.2301 77.5547 34.1001 78.0347 34.1001C78.4347 34.1001 78.7647 34.1701 79.0247 34.3101C79.3047 34.4301 79.5747 34.6101 79.8347 34.8501ZM83.4841 25.4601C83.4841 26.0801 83.7141 26.6001 84.1741 27.0201C84.6341 27.4401 85.1841 27.6501 85.8241 27.6501C86.4641 27.6501 87.0041 27.4401 87.4441 27.0201C87.9041 26.6001 88.1341 26.0801 88.1341 25.4601C88.1341 24.8201 87.9041 24.3001 87.4441 23.9001C87.0041 23.4801 86.4641 23.2701 85.8241 23.2701C85.1841 23.2701 84.6341 23.4801 84.1741 23.9001C83.7141 24.3001 83.4841 24.8201 83.4841 25.4601ZM83.9041 30.8001V44.6001H87.6841V30.8001H83.9041ZM112.209 35.7801C112.209 34.6601 112.049 33.7101 111.729 32.9301C111.429 32.1301 110.959 31.5301 110.319 31.1301C109.679 30.7101 108.849 30.5001 107.829 30.5001C106.889 30.5001 106.049 30.7001 105.309 31.1001C104.589 31.5001 103.979 32.0901 103.479 32.8701C103.179 32.0901 102.699 31.5001 102.039 31.1001C101.379 30.7001 100.539 30.5001 99.5187 30.5001C98.5987 30.5001 97.8087 30.7001 97.1487 31.1001C96.4887 31.5001 95.9587 32.0801 95.5587 32.8401V30.8001H91.8087V44.6001H95.5587V36.2001C95.5587 35.6001 95.6587 35.0901 95.8587 34.6701C96.0587 34.2301 96.3387 33.9101 96.6987 33.7101C97.0587 33.4901 97.4787 33.3801 97.9587 33.3801C98.6787 33.3801 99.1987 33.6201 99.5187 34.1001C99.8387 34.5601 99.9987 35.2601 99.9987 36.2001V44.6001H103.869V36.2001C103.869 35.6001 103.969 35.0901 104.169 34.6701C104.369 34.2301 104.649 33.9101 105.009 33.7101C105.369 33.4901 105.789 33.3801 106.269 33.3801C106.989 33.3801 107.509 33.6201 107.829 34.1001C108.149 34.5601 108.309 35.2601 108.309 36.2001V44.6001H112.209V35.7801ZM122.547 44.9001C124.207 44.9001 125.627 44.5801 126.807 43.9401C128.007 43.2801 128.967 42.3001 129.687 41.0001L126.297 39.9501C125.897 40.6101 125.387 41.1101 124.767 41.4501C124.167 41.7701 123.437 41.9301 122.577 41.9301C121.817 41.9301 121.167 41.7601 120.627 41.4201C120.087 41.0801 119.677 40.5901 119.397 39.9501C119.137 39.3101 119.007 38.5301 119.007 37.6101C119.027 36.6501 119.167 35.8501 119.427 35.2101C119.707 34.5501 120.097 34.0601 120.597 33.7401C121.117 33.4001 121.757 33.2301 122.517 33.2301C123.137 33.2301 123.677 33.3701 124.137 33.6501C124.597 33.9301 124.947 34.3101 125.187 34.7901C125.447 35.2701 125.577 35.8501 125.577 36.5301C125.577 36.6701 125.537 36.8501 125.457 37.0701C125.397 37.2701 125.327 37.4301 125.247 37.5501L126.297 36.1701H117.327V38.5701H129.687C129.707 38.4501 129.717 38.2901 129.717 38.0901C129.737 37.8901 129.747 37.7001 129.747 37.5201C129.747 36.0401 129.467 34.7801 128.907 33.7401C128.347 32.6801 127.527 31.8801 126.447 31.3401C125.387 30.7801 124.097 30.5001 122.577 30.5001C121.057 30.5001 119.737 30.8001 118.617 31.4001C117.497 31.9801 116.627 32.8101 116.007 33.8901C115.407 34.9501 115.107 36.2201 115.107 37.7001C115.107 39.1601 115.407 40.4301 116.007 41.5101C116.627 42.5701 117.497 43.4001 118.617 44.0001C119.737 44.6001 121.047 44.9001 122.547 44.9001ZM133.038 23.6001V44.6001H137.328V23.6001H133.038ZM135.648 27.2301H139.818C140.958 27.2301 141.858 27.4901 142.518 28.0101C143.178 28.5101 143.508 29.2701 143.508 30.2901C143.508 31.2901 143.178 32.0501 142.518 32.5701C141.858 33.0901 140.958 33.3501 139.818 33.3501H135.648V36.9801H139.818C141.478 36.9801 142.888 36.7101 144.048 36.1701C145.228 35.6301 146.128 34.8601 146.748 33.8601C147.368 32.8401 147.678 31.6501 147.678 30.2901C147.678 28.9101 147.368 27.7201 146.748 26.7201C146.128 25.7201 145.228 24.9501 144.048 24.4101C142.888 23.8701 141.478 23.6001 139.818 23.6001H135.648V27.2301ZM152.489 40.3101C152.489 39.9101 152.579 39.5801 152.759 39.3201C152.939 39.0401 153.219 38.8301 153.599 38.6901C153.979 38.5301 154.469 38.4501 155.069 38.4501C155.809 38.4501 156.509 38.5501 157.169 38.7501C157.849 38.9501 158.459 39.2501 158.999 39.6501V37.8501C158.799 37.6101 158.469 37.3601 158.009 37.1001C157.549 36.8401 156.979 36.6201 156.299 36.4401C155.639 36.2601 154.869 36.1701 153.989 36.1701C152.269 36.1701 150.939 36.5601 149.999 37.3401C149.059 38.1201 148.589 39.1801 148.589 40.5201C148.589 41.4601 148.809 42.2601 149.249 42.9201C149.709 43.5601 150.309 44.0501 151.049 44.3901C151.789 44.7301 152.589 44.9001 153.449 44.9001C154.289 44.9001 155.089 44.7501 155.849 44.4501C156.629 44.1501 157.259 43.7001 157.739 43.1001C158.239 42.5001 158.489 41.7601 158.489 40.8801L158.009 39.0801C158.009 39.7401 157.859 40.3101 157.559 40.7901C157.259 41.2501 156.869 41.6101 156.389 41.8701C155.909 42.1101 155.369 42.2301 154.769 42.2301C154.349 42.2301 153.959 42.1601 153.599 42.0201C153.259 41.8601 152.989 41.6401 152.789 41.3601C152.589 41.0601 152.489 40.7101 152.489 40.3101ZM150.989 34.7001C151.189 34.5601 151.499 34.3901 151.919 34.1901C152.339 33.9901 152.839 33.8201 153.419 33.6801C153.999 33.5401 154.609 33.4701 155.249 33.4701C155.669 33.4701 156.049 33.5101 156.389 33.5901C156.729 33.6701 157.019 33.8001 157.259 33.9801C157.519 34.1601 157.709 34.3901 157.829 34.6701C157.949 34.9301 158.009 35.2501 158.009 35.6301V44.6001H161.759V34.8201C161.759 33.8801 161.499 33.0901 160.979 32.4501C160.459 31.7901 159.739 31.2901 158.819 30.9501C157.899 30.6101 156.849 30.4401 155.669 30.4401C154.389 30.4401 153.229 30.6201 152.189 30.9801C151.149 31.3201 150.269 31.6801 149.549 32.0601L150.989 34.7001ZM178.367 30.8001H174.317L169.967 41.7201L171.887 41.7801L167.447 30.8001H163.127L168.857 43.2201L165.377 51.2001H169.367L178.367 30.8001ZM178.682 42.8301C178.682 43.4701 178.912 44.0301 179.372 44.5101C179.852 44.9901 180.442 45.2301 181.142 45.2301C181.862 45.2301 182.452 44.9901 182.912 44.5101C183.372 44.0301 183.602 43.4701 183.602 42.8301C183.602 42.1501 183.372 41.5801 182.912 41.1201C182.452 40.6401 181.862 40.4001 181.142 40.4001C180.442 40.4001 179.852 40.6401 179.372 41.1201C178.912 41.5801 178.682 42.1501 178.682 42.8301Z" fill="#231656"/>
<defs>
<linearGradient id="paint0_linear_3_2311" x1="7.26888" y1="1.79594" x2="19.3001" y2="45.0989" gradientUnits="userSpaceOnUse">
<stop stop-color="#7D7AFF"/>
<stop offset="1" stop-color="#3CBBFF"/>
</linearGradient>
<linearGradient id="paint1_linear_3_2311" x1="14.3724" y1="9.73149" x2="26.4036" y2="53.0345" gradientUnits="userSpaceOnUse">
<stop stop-color="#FF60CF"/>
<stop offset="1" stop-color="#FFBA64"/>
</linearGradient>
</defs>
</svg>
